<svg width="328" height="67" viewBox="0 0 328 67" fill="none" xmlns="http://www.w3.org/2000/svg">
<path d="M89.0337 24.9923C89.0337 26.6065 91.3248 27.9863 95.9017 29.1422C97.5106 29.4963 98.9686 29.9076 100.281 30.3867C101.588 30.8657 102.91 31.5479 104.243 32.4278C105.576 33.3078 106.623 34.4794 107.378 35.9373C108.133 37.3952 108.508 39.0823 108.508 40.9932C108.508 44.8672 107.045 47.8612 104.129 49.9752C101.208 52.0371 97.6095 53.0681 93.3346 53.0681C85.5815 53.0681 80.3017 50.0741 77.4795 44.0861L85.9356 39.3322C87.0915 42.6022 89.5596 44.2372 93.3346 44.2372C96.8077 44.2372 98.5416 43.1541 98.5416 40.988C98.5416 39.3791 96.2505 37.994 91.6736 36.8381C89.9605 36.3851 88.5026 35.9321 87.2946 35.4791C86.0866 35.0261 84.7796 34.3596 83.3685 33.4796C81.9575 32.5996 80.8901 31.4697 80.1611 30.0847C79.4321 28.6997 79.0676 27.0803 79.0676 25.2162C79.0676 21.4932 80.4266 18.5721 83.1446 16.4581C85.9095 14.292 89.3357 13.209 93.4128 13.209C96.4848 13.209 99.2758 13.9015 101.791 15.2866C104.306 16.6716 106.295 18.645 107.753 21.2121L99.4476 25.7421C98.2396 23.1751 96.2245 21.8942 93.4075 21.8942C92.1475 21.8942 91.1061 22.1858 90.273 22.7637C89.445 23.3417 89.0285 24.0863 89.0285 24.9923" fill="#1D2534"/>
<path d="M139.088 14.2709L145.956 37.5251L150.387 52.0212H141.426L134.485 29.1471L127.539 52.0212H118.25L106.248 14.2709H116.589L123.009 37.447L129.877 14.2709H139.088Z" fill="#1D2534"/>
<path d="M154.798 39.3996H145.431L152.372 14.2709H162.718L154.798 39.3996Z" fill="#1D2534"/>
<path d="M187.778 24.9923C187.778 26.6065 190.069 27.9863 194.646 29.1422C196.255 29.4963 197.713 29.9076 199.025 30.3867C200.332 30.8657 201.654 31.5479 202.987 32.4278C204.32 33.3078 205.367 34.4794 206.122 35.9373C206.877 37.3952 207.252 39.0823 207.252 40.9932C207.252 44.8672 205.789 47.8612 202.873 49.9752C199.952 52.0371 196.354 53.0681 192.079 53.0681C184.326 53.0681 179.046 50.0741 176.224 44.0861L184.68 39.3322C185.836 42.6022 188.304 44.2372 192.079 44.2372C195.552 44.2372 197.286 43.1541 197.286 40.988C197.286 39.3791 194.995 37.994 190.418 36.8381C188.705 36.3851 187.247 35.9321 186.039 35.4791C184.831 35.0261 183.524 34.3596 182.113 33.4796C180.702 32.5996 179.634 31.4697 178.905 30.0847C178.176 28.6997 177.812 27.0803 177.812 25.2162C177.812 21.4932 179.171 18.5721 181.889 16.4581C184.654 14.292 188.08 13.209 192.157 13.209C195.229 13.209 198.02 13.9015 200.535 15.2866C203.05 16.6716 205.039 18.645 206.497 21.2121L198.192 25.7421C196.984 23.1751 194.969 21.8942 192.152 21.8942C190.892 21.8942 189.85 22.1858 189.017 22.7637C188.189 23.3417 187.773 24.0863 187.773 24.9923" fill="#1D2534"/>
<path d="M254.401 44.6379C255.453 44.6379 256.349 45.0076 257.093 45.7574C257.838 46.502 258.213 47.4028 258.213 48.4494C258.213 49.496 257.838 50.3968 257.093 51.1414C256.349 51.886 255.448 52.2609 254.401 52.2609C253.355 52.2609 252.454 51.8912 251.709 51.1414C250.965 50.3968 250.59 49.5012 250.59 48.4494C250.59 47.3976 250.954 46.502 251.683 45.7574C252.412 45.0129 253.318 44.6379 254.401 44.6379Z" fill="#1D2534"/>
<path d="M289.261 25.5803C292.141 25.5803 294.463 26.5124 296.223 28.3764C297.983 30.2405 298.868 32.7451 298.868 35.8953V51.6463H293.38V36.2493C293.38 34.5206 292.938 33.1668 292.058 32.1827C291.178 31.1986 289.975 30.7091 288.449 30.7091C286.72 30.7091 285.367 31.2767 284.383 32.4118C283.398 33.5469 282.909 35.2132 282.909 37.4157V51.6463H277.421V36.2493C277.421 34.4894 277.004 33.1252 276.176 32.1567C275.343 31.1934 274.167 30.7091 272.646 30.7091C270.954 30.7091 269.59 31.2819 268.553 32.4379C267.517 33.5886 267.002 35.2496 267.002 37.4157V51.6463H261.514V26.2364H267.002V29.2877C268.626 26.8144 271.048 25.5803 274.271 25.5803C277.494 25.5803 279.931 26.9185 281.487 29.5949C283.149 26.9185 285.736 25.5803 289.261 25.5803Z" fill="#1D2534"/>
<path d="M322.346 29.85V26.2416H327.835V51.6515H322.346V47.991C320.279 50.8704 317.317 52.3128 313.453 52.3128C309.964 52.3128 306.981 51.0266 304.507 48.4492C302.034 45.877 300.795 42.7059 300.795 38.9465C300.795 35.1871 302.034 32.0161 304.507 29.4439C306.981 26.8716 309.959 25.5803 313.453 25.5803C317.317 25.5803 320.279 27.0018 322.346 29.85ZM308.574 44.7887C310.1 46.3144 312.011 47.0746 314.317 47.0746C316.624 47.0746 318.535 46.3144 320.061 44.7887C321.586 43.2319 322.346 41.2845 322.346 38.9465C322.346 36.6086 321.586 34.6768 320.061 33.1512C318.535 31.5943 316.624 30.8133 314.317 30.8133C312.011 30.8133 310.1 31.5943 308.574 33.1512C307.048 34.6768 306.288 36.6086 306.288 38.9465C306.288 41.2845 307.048 43.2006 308.574 44.7887Z" fill="#1D2534"/>
<path d="M173.964 14.2709H164.227V52.016H173.964V14.2709Z" fill="#1D2534"/>
<path d="M164.867 7.97063C166.049 9.15261 167.444 9.7462 169.059 9.7462C170.673 9.7462 172.141 9.15261 173.323 7.97063C174.505 6.78866 175.099 5.3932 175.099 3.77905H163.097C163.097 5.388 163.69 6.78866 164.872 7.97063" fill="#1D2534"/>
<path d="M230.736 13.214C225.55 13.214 221.801 14.9792 219.489 18.4991V3.77905H209.752V52.0214H219.489V31.6362C219.489 28.5693 220.228 26.2366 221.717 24.6537C223.201 23.0655 225.227 22.2741 227.794 22.2741C230.111 22.2741 231.934 22.9562 233.266 24.3152C234.599 25.6742 235.266 27.5852 235.266 30.0533V52.0214H245.003V28.8453C245.003 24.0132 243.644 20.1913 240.926 17.3692C238.307 14.5991 234.912 13.2192 230.736 13.2192" fill="#1D2534"/>
<path d="M40.6298 5.83081L7.22203 39.2385L3.90521 42.5554C2.74927 41.3994 1.85369 40.0873 1.21844 38.6918C0.406155 36.9267 0 35.0313 0 33.1204C0 29.715 1.30174 26.2941 3.90521 23.6906L26.9563 0.644682C27.4718 0.129194 28.2164 -0.099897 28.935 0.0406904L39.5051 2.13909C41.2234 2.47754 41.8638 4.59675 40.6246 5.836L40.6298 5.83081Z" fill="#57B576"/>
<path d="M38.2717 43.6746L25.999 47.7725C19.7819 49.8449 13.0441 48.9545 7.6445 45.5387C6.30632 44.7004 5.05666 43.7059 3.91113 42.5551L8.27455 41.1024L32.2109 33.1254L39.1309 40.0506C40.2816 41.1961 39.8182 43.1644 38.2717 43.6746Z" fill="#57B576"/>
<path d="M32.2212 33.1723L7.64966 45.5388C6.31148 44.7005 5.06182 43.706 3.91629 42.5552C2.77076 41.4045 1.86474 40.0872 1.22949 38.6917L22.453 23.9561L7.26435 39.202C7.26435 39.202 7.23832 39.228 7.23311 39.2436C6.48852 40.0507 7.23832 41.3264 8.27971 41.1025C8.32657 41.0973 8.37341 41.0817 8.41507 41.0713L32.2212 33.1776V33.1723Z" fill="#57B576"/>
<path d="M23.7853 60.4306L57.1931 27.0229L60.5099 23.7061C61.6658 24.862 62.5614 26.1741 63.1967 27.5696C64.0089 29.3348 64.4151 31.2301 64.4151 33.141C64.4151 36.5464 63.1134 39.9673 60.5099 42.5708L37.4588 65.6167C36.9433 66.1322 36.1987 66.3613 35.4801 66.2207L24.91 64.1223C23.1917 63.7839 22.5513 61.6646 23.7905 60.4254L23.7853 60.4306Z" fill="#57B576"/>
<path d="M26.1444 22.5866L38.4172 18.4887C44.6343 16.4164 51.372 17.3068 56.7716 20.7225C58.1098 21.5608 59.3595 22.5554 60.505 23.7061L56.1416 25.1588L32.2053 33.1359L25.2853 26.2106C24.1345 25.0651 24.598 23.0969 26.1444 22.5866Z" fill="#57B576"/>
<path d="M32.2002 33.0888L56.7717 20.7223C58.1099 21.5606 59.3596 22.5551 60.5051 23.7059C61.6507 24.8566 62.5566 26.174 63.1919 27.5694L41.9684 42.3051L57.1571 27.0591C57.1571 27.0591 57.1831 27.0331 57.1883 27.0175C57.9329 26.2104 57.1831 24.9347 56.1417 25.1586C56.0948 25.1638 56.048 25.1794 56.0063 25.1898L32.2002 33.0835V33.0888Z" fill="#57B576"/>
</svg>
